# 3ds Max Wavefront OBJ Exporter v0.97b - (c)2007 guruware
# File Created: 02.11.2016 17:30:09

mtllib Door.mtl

#
# object Door
#

v  46.6804 0.0000 12.3088
v  46.6804 -8.2211 12.3088
v  46.6804 -8.2211 6.2177
v  46.6804 0.0000 6.2177
v  46.6804 0.0000 23.6205
v  46.6804 -8.2211 23.6205
v  46.6804 -8.2211 18.1494
v  46.6804 0.0000 18.1494
v  46.6804 0.0000 28.6108
v  46.6804 0.0000 33.0186
v  46.6804 -8.2211 33.0186
v  46.6804 -8.2211 28.6108
v  46.6804 0.0000 36.7542
v  46.6804 -8.2211 36.7542
v  47.7187 0.0000 43.2451
v  47.7187 -8.2211 43.2451
v  46.6804 -8.2211 41.9201
v  46.6804 0.0000 41.9201
v  -46.1815 0.0000 43.2451
v  -46.1815 -8.2211 43.2451
v  -46.1815 -8.2211 43.6898
v  -46.1815 0.0000 43.6898
v  -46.1815 0.0000 39.7417
v  -46.1815 -8.2211 39.7417
v  -46.1815 -8.2211 41.9201
v  -46.1815 0.0000 41.9201
v  -46.1815 0.0000 33.0186
v  -46.1815 -8.2211 33.0186
v  -46.1815 -8.2211 36.7542
v  -46.1815 0.0000 36.7542
v  -46.1815 0.0000 28.6108
v  -46.1815 -8.2211 28.6108
v  -46.1815 0.0000 18.1494
v  -46.1815 0.0000 12.3089
v  -46.1815 -8.2211 12.3089
v  -46.1815 -8.2211 18.1494
v  -46.1815 0.0000 6.2177
v  -46.1815 -8.2211 6.2177
v  -46.1815 0.0000 0.0000
v  -46.1815 -8.2211 0.0000
v  -46.1815 0.0000 -6.2177
v  -46.1815 -8.2211 -6.2177
v  -46.1815 0.0000 -23.6205
v  -46.1815 0.0000 -28.6107
v  -46.1815 -8.2211 -28.6107
v  -46.1815 -8.2211 -23.6205
v  -46.1815 0.0000 -33.0185
v  -46.1815 0.0000 -36.7542
v  -46.1815 -8.2211 -36.7542
v  -46.1815 -8.2211 -33.0185
v  -46.1815 0.0000 -39.7416
v  -46.1815 0.0000 -41.9201
v  -46.1815 -8.2211 -41.9201
v  -46.1815 -8.2211 -39.7416
v  -46.1815 0.0000 -43.2451
v  -46.1815 -8.2211 -43.2451
v  -46.1815 0.0000 -43.6898
v  -46.1815 -8.2211 -43.6898
v  46.6804 0.0000 -43.6898
v  46.6804 0.0000 -43.2451
v  46.6804 -8.2211 -43.2451
v  46.6804 -8.2211 -43.6898
v  46.6804 0.0000 -41.9201
v  46.6804 -8.2211 -41.9201
v  46.6804 0.0000 -39.7416
v  46.6804 -8.2211 -39.7416
v  46.6804 0.0000 -36.7542
v  46.6804 0.0000 -33.0185
v  46.6804 -8.2211 -33.0185
v  46.6804 -8.2211 -36.7542
v  46.6804 0.0000 -28.6107
v  46.6804 -8.2211 -28.6107
v  46.6804 0.0000 -23.6205
v  46.6804 -8.2211 -23.6205
v  46.6804 0.0000 -18.1493
v  46.6804 0.0000 -12.3088
v  46.6804 -8.2211 -12.3088
v  46.6804 -8.2211 -18.1493
v  46.6804 0.0000 -6.2176
v  46.6804 -8.2211 -6.2176
v  46.6804 0.0000 -0.0000
v  46.6804 -8.2211 -0.0000
v  43.2451 0.0000 6.2177
v  43.6898 0.0000 -0.0000
v  35.1805 0.0000 0.0000
v  34.8224 0.0000 5.0067
v  41.9201 0.0000 12.3088
v  33.7555 0.0000 9.9115
v  39.7417 0.0000 18.1494
v  32.0013 0.0000 14.6145
v  36.7542 0.0000 23.6205
v  29.5957 0.0000 19.0200
v  33.0186 0.0000 28.6108
v  26.5877 0.0000 23.0384
v  28.6107 0.0000 33.0186
v  23.0383 0.0000 26.5877
v  23.6205 0.0000 36.7542
v  19.0200 0.0000 29.5958
v  18.1494 0.0000 39.7417
v  14.6145 0.0000 32.0013
v  12.3088 0.0000 41.9201
v  9.9115 0.0000 33.7555
v  6.2177 0.0000 43.2451
v  5.0067 0.0000 34.8224
v  0.0000 0.0000 43.6898
v  0.0000 0.0000 35.1805
v  -6.2177 0.0000 43.2451
v  -5.0067 0.0000 34.8224
v  -12.3088 0.0000 41.9201
v  -9.9115 0.0000 33.7555
v  -18.1494 0.0000 39.7417
v  -14.6145 0.0000 32.0013
v  -23.6205 0.0000 36.7542
v  -19.0200 0.0000 29.5958
v  -28.6107 0.0000 33.0186
v  -23.0383 0.0000 26.5877
v  -33.0186 0.0000 28.6108
v  -26.5877 0.0000 23.0384
v  -36.7542 0.0000 23.6205
v  -29.5957 0.0000 19.0200
v  -39.7416 0.0000 18.1494
v  -32.0013 0.0000 14.6145
v  -41.9201 0.0000 12.3089
v  -33.7555 0.0000 9.9115
v  -43.2451 0.0000 6.2177
v  -34.8224 0.0000 5.0067
v  -43.6898 0.0000 0.0000
v  -35.1805 0.0000 0.0000
v  -43.2451 0.0000 -6.2177
v  -34.8224 0.0000 -5.0067
v  -41.9201 0.0000 -12.3088
v  -33.7555 0.0000 -9.9115
v  -39.7417 0.0000 -18.1494
v  -32.0014 0.0000 -14.6145
v  -36.7542 0.0000 -23.6205
v  -29.5958 0.0000 -19.0200
v  -33.0186 0.0000 -28.6107
v  -26.5877 0.0000 -23.0383
v  -28.6108 0.0000 -33.0185
v  -23.0384 0.0000 -26.5876
v  -23.6205 0.0000 -36.7542
v  -19.0201 0.0000 -29.5957
v  -18.1494 0.0000 -39.7416
v  -14.6145 0.0000 -32.0013
v  -12.3089 0.0000 -41.9201
v  -9.9115 0.0000 -33.7555
v  -6.2177 0.0000 -43.2451
v  -5.0067 0.0000 -34.8224
v  0.0000 0.0000 -43.6898
v  0.0000 0.0000 -35.1805
v  6.2177 0.0000 -43.2451
v  5.0067 0.0000 -34.8224
v  12.3089 0.0000 -41.9201
v  9.9115 0.0000 -33.7555
v  18.1494 0.0000 -39.7416
v  14.6145 0.0000 -32.0013
v  23.6205 0.0000 -36.7542
v  19.0201 0.0000 -29.5957
v  28.6108 0.0000 -33.0185
v  23.0384 0.0000 -26.5876
v  33.0186 0.0000 -28.6107
v  26.5877 0.0000 -23.0383
v  36.7542 0.0000 -23.6205
v  29.5958 0.0000 -19.0200
v  39.7417 0.0000 -18.1493
v  32.0014 0.0000 -14.6145
v  41.9201 0.0000 -12.3088
v  33.7555 0.0000 -9.9114
v  43.2451 0.0000 -6.2176
v  34.8225 0.0000 -5.0066
v  34.8224 -8.2211 5.0067
v  33.7555 -8.2211 9.9115
v  32.0013 -8.2211 14.6145
v  29.5957 -8.2211 19.0200
v  19.0200 -8.2211 29.5958
v  14.6145 -8.2211 32.0013
v  5.0067 -8.2211 34.8224
v  0.0000 -8.2211 35.1805
v  -5.0067 -8.2211 34.8224
v  -9.9115 -8.2211 33.7555
v  -14.6145 -8.2211 32.0013
v  -33.7555 -8.2211 9.9115
v  -34.8224 -8.2211 5.0067
v  -33.7555 -8.2211 -9.9115
v  -32.0014 -8.2211 -14.6145
v  -29.5958 -8.2211 -19.0200
v  -26.5877 -8.2211 -23.0383
v  -23.0384 -8.2211 -26.5876
v  -19.0201 -8.2211 -29.5957
v  -9.9115 -8.2211 -33.7555
v  -5.0067 -8.2211 -34.8224
v  0.0000 -8.2211 -35.1805
v  5.0067 -8.2211 -34.8224
v  14.6145 -8.2211 -32.0013
v  19.0201 -8.2211 -29.5957
v  26.5877 -8.2211 -23.0383
v  29.5958 -8.2211 -19.0200
v  33.7555 -8.2211 -9.9114
v  34.8225 -8.2211 -5.0066
v  46.6804 0.0000 39.7417
v  46.6804 -8.2211 39.7417
v  47.7187 0.0000 43.6898
v  47.7187 -8.2211 43.6898
v  -46.1815 0.0000 23.6205
v  -46.1815 -8.2211 23.6205
v  -46.1815 0.0000 -12.3088
v  -46.1815 -8.2211 -12.3088
v  -46.1815 0.0000 -18.1494
v  -46.1815 -8.2211 -18.1494
v  43.2451 -8.2211 6.2177
v  35.1805 -8.2211 0.0000
v  43.6898 -8.2211 -0.0000
v  41.9201 -8.2211 12.3088
v  39.7417 -8.2211 18.1494
v  36.7542 -8.2211 23.6205
v  33.0186 -8.2211 28.6108
v  26.5877 -8.2211 23.0384
v  28.6107 -8.2211 33.0186
v  23.0383 -8.2211 26.5877
v  23.6205 -8.2211 36.7542
v  18.1494 -8.2211 39.7417
v  12.3088 -8.2211 41.9201
v  9.9115 -8.2211 33.7555
v  6.2177 -8.2211 43.2451
v  0.0000 -8.2211 43.6898
v  -6.2177 -8.2211 43.2451
v  -12.3088 -8.2211 41.9201
v  -18.1494 -8.2211 39.7417
v  -23.6205 -8.2211 36.7542
v  -19.0200 -8.2211 29.5958
v  -28.6107 -8.2211 33.0186
v  -23.0383 -8.2211 26.5877
v  -33.0186 -8.2211 28.6108
v  -26.5877 -8.2211 23.0384
v  -36.7542 -8.2211 23.6205
v  -29.5957 -8.2211 19.0200
v  -39.7416 -8.2211 18.1494
v  -32.0013 -8.2211 14.6145
v  -41.9201 -8.2211 12.3089
v  -43.2451 -8.2211 6.2177
v  -43.6898 -8.2211 0.0000
v  -35.1805 -8.2211 0.0000
v  -43.2451 -8.2211 -6.2177
v  -34.8224 -8.2211 -5.0067
v  -41.9201 -8.2211 -12.3088
v  -39.7417 -8.2211 -18.1494
v  -36.7542 -8.2211 -23.6205
v  -33.0186 -8.2211 -28.6107
v  -28.6108 -8.2211 -33.0185
v  -23.6205 -8.2211 -36.7542
v  -18.1494 -8.2211 -39.7416
v  -14.6145 -8.2211 -32.0013
v  -12.3089 -8.2211 -41.9201
v  -6.2177 -8.2211 -43.2451
v  0.0000 -8.2211 -43.6898
v  6.2177 -8.2211 -43.2451
v  12.3089 -8.2211 -41.9201
v  9.9115 -8.2211 -33.7555
v  18.1494 -8.2211 -39.7416
v  23.6205 -8.2211 -36.7542
v  28.6108 -8.2211 -33.0185
v  23.0384 -8.2211 -26.5876
v  33.0186 -8.2211 -28.6107
v  36.7542 -8.2211 -23.6205
v  39.7417 -8.2211 -18.1493
v  32.0014 -8.2211 -14.6145
v  41.9201 -8.2211 -12.3088
v  43.2451 -8.2211 -6.2176
# 268 vertices

vn 1.0000 0.0000 -0.0000
vn 0.9453 0.0000 -0.3262
vn -1.0000 0.0000 -0.0000
vn 0.0000 1.0000 -0.0000
vn -0.9771 0.0000 -0.2126
vn -0.8777 0.0000 -0.4792
vn -0.4792 0.0000 -0.8777
vn -0.0713 0.0000 -0.9975
vn 0.0713 0.0000 -0.9975
vn 0.2126 0.0000 -0.9771
vn 0.3495 0.0000 -0.9369
vn 0.9771 0.0000 -0.2126
vn 0.9370 0.0000 0.3495
vn 0.8005 0.0000 0.5993
vn 0.7071 0.0000 0.7071
vn 0.5993 0.0000 0.8005
vn 0.2126 0.0000 0.9771
vn 0.0713 0.0000 0.9975
vn -0.0713 0.0000 0.9975
vn -0.4792 0.0000 0.8777
vn -0.8005 0.0000 0.5993
vn -0.9771 0.0000 0.2126
vn 0.0000 -1.0000 -0.0000
vn -0.9975 0.0000 -0.0713
vn -0.9369 0.0000 -0.3495
vn -0.8005 0.0000 -0.5993
vn -0.7071 0.0000 -0.7071
vn -0.5993 0.0000 -0.8005
vn -0.3495 0.0000 -0.9369
vn -0.2126 0.0000 -0.9771
vn 0.4792 0.0000 -0.8777
vn 0.5993 0.0000 -0.8005
vn 0.7071 0.0000 -0.7071
vn 0.8005 0.0000 -0.5993
vn 0.8777 0.0000 -0.4792
vn 0.9369 0.0000 -0.3495
vn 0.9975 0.0000 -0.0713
vn 0.9975 0.0000 0.0713
vn 0.9771 0.0000 0.2126
vn 0.8777 0.0000 0.4792
vn 0.4793 0.0000 0.8777
vn 0.3495 0.0000 0.9369
vn -0.2126 0.0000 0.9771
vn -0.3495 0.0000 0.9369
vn -0.5993 0.0000 0.8005
vn -0.7071 0.0000 0.7071
vn -0.8777 0.0000 0.4792
vn -0.9370 0.0000 0.3495
vn -0.9975 0.0000 0.0713
vn 0.0000 0.0000 1.0000
vn 0.0000 0.0000 -1.0000
# 51 vertex normals

vt 0.7045 0.0000 1.0000
vt 0.7273 0.0000 1.0000
vt 0.6591 0.0000 1.0000
vt 0.6818 0.0000 1.0000
vt 0.6364 0.0000 1.0000
vt 0.6136 0.0000 1.0000
vt 0.5909 0.0000 1.0000
vt 0.5227 0.0000 1.0000
vt 0.5455 0.0000 1.0000
vt 0.4773 0.0000 1.0000
vt 0.5000 0.0000 1.0000
vt 0.4318 0.0000 1.0000
vt 0.4545 0.0000 1.0000
vt 0.3864 0.0000 1.0000
vt 0.4091 0.0000 1.0000
vt 0.3636 0.0000 1.0000
vt 0.3182 0.0000 1.0000
vt 0.2955 0.0000 1.0000
vt 0.2727 0.0000 1.0000
vt 0.2500 0.0000 1.0000
vt 0.2273 0.0000 1.0000
vt 0.1591 0.0000 1.0000
vt 0.1364 0.0000 1.0000
vt 0.1136 0.0000 1.0000
vt 0.0909 0.0000 1.0000
vt 0.0682 0.0000 1.0000
vt 0.0455 0.0000 1.0000
vt 0.0227 0.0000 1.0000
vt 0.0000 0.0000 1.0000
vt -0.0227 0.0000 1.0000
vt 0.9773 0.0000 1.0000
vt 0.9545 0.0000 1.0000
vt 0.9318 0.0000 1.0000
vt 0.9091 0.0000 1.0000
vt 0.8864 0.0000 1.0000
vt 0.8636 0.0000 1.0000
vt 0.8409 0.0000 1.0000
vt 0.8182 0.0000 1.0000
vt 0.7955 0.0000 1.0000
vt 0.7727 0.0000 1.0000
vt 0.7500 0.0000 1.0000
vt 0.5682 0.0000 1.0000
vt 0.3409 0.0000 1.0000
vt 0.2045 0.0000 1.0000
vt 0.1818 0.0000 1.0000
# 45 texture coords

g Door
usemtl 03___Default
s 8
f 1/1/1 2/1/1 3/2/1 4/2/1 
f 5/3/1 6/3/1 7/4/1 8/4/1 
f 9/5/1 10/6/1 11/6/1 12/5/1 
f 13/7/1 14/7/1 11/6/1 10/6/1 
f 15/8/2 16/8/2 17/9/2 18/9/2 
f 19/10/3 20/10/3 21/11/3 22/11/3 
f 23/12/3 24/12/3 25/13/3 26/13/3 
f 27/14/3 28/14/3 29/15/3 30/15/3 
f 27/14/3 31/16/3 32/16/3 28/14/3 
f 33/17/3 34/18/3 35/18/3 36/17/3 
f 34/18/3 37/19/3 38/19/3 35/18/3 
f 37/19/3 39/20/3 40/20/3 38/19/3 
f 39/20/3 41/21/3 42/21/3 40/20/3 
f 43/22/3 44/23/3 45/23/3 46/22/3 
f 47/24/3 48/25/3 49/25/3 50/24/3 
f 51/26/3 52/27/3 53/27/3 54/26/3 
f 52/27/3 55/28/3 56/28/3 53/27/3 
f 55/28/3 57/29/3 58/29/3 56/28/3 
f 59/29/1 60/30/1 61/30/1 62/29/1 
f 60/31/1 63/32/1 64/32/1 61/31/1 
f 63/32/1 65/33/1 66/33/1 64/32/1 
f 67/34/1 68/35/1 69/35/1 70/34/1 
f 68/35/1 71/36/1 72/36/1 69/35/1 
f 73/37/1 74/37/1 72/36/1 71/36/1 
f 75/38/1 76/39/1 77/39/1 78/38/1 
f 76/39/1 79/40/1 80/40/1 77/39/1 
f 81/41/1 82/41/1 80/40/1 79/40/1 
s off
f 83/2/4 84/41/4 85/41/4 86/2/4 
f 87/1/4 83/2/4 86/2/4 88/1/4 
f 89/4/4 87/1/4 88/1/4 90/4/4 
f 91/3/4 89/4/4 90/4/4 92/3/4 
f 93/5/4 91/3/4 92/3/4 94/5/4 
f 95/6/4 93/5/4 94/5/4 96/6/4 
f 97/7/4 95/6/4 96/6/4 98/7/4 
f 99/42/4 97/7/4 98/7/4 100/42/4 
f 101/9/4 99/42/4 100/42/4 102/9/4 
f 103/8/4 101/9/4 102/9/4 104/8/4 
f 105/11/4 103/8/4 104/8/4 106/11/4 
f 107/10/4 105/11/4 106/11/4 108/10/4 
f 109/13/4 107/10/4 108/10/4 110/13/4 
f 111/12/4 109/13/4 110/13/4 112/12/4 
f 113/15/4 111/12/4 112/12/4 114/15/4 
f 115/14/4 113/15/4 114/15/4 116/14/4 
f 117/16/4 115/14/4 116/14/4 118/16/4 
f 119/43/4 117/16/4 118/16/4 120/43/4 
f 121/17/4 119/43/4 120/43/4 122/17/4 
f 123/18/4 121/17/4 122/17/4 124/18/4 
f 125/19/4 123/18/4 124/18/4 126/19/4 
f 127/20/4 125/19/4 126/19/4 128/20/4 
f 129/21/4 127/20/4 128/20/4 130/21/4 
f 131/44/4 129/21/4 130/21/4 132/44/4 
f 133/45/4 131/44/4 132/44/4 134/45/4 
f 135/22/4 133/45/4 134/45/4 136/22/4 
f 137/23/4 135/22/4 136/22/4 138/23/4 
f 139/24/4 137/23/4 138/23/4 140/24/4 
f 141/25/4 139/24/4 140/24/4 142/25/4 
f 143/26/4 141/25/4 142/25/4 144/26/4 
f 145/27/4 143/26/4 144/26/4 146/27/4 
f 147/28/4 145/27/4 146/27/4 148/28/4 
f 149/29/4 147/28/4 148/28/4 150/29/4 
f 151/30/4 149/29/4 150/29/4 152/30/4 
f 153/32/4 151/31/4 152/31/4 154/32/4 
f 155/33/4 153/32/4 154/32/4 156/33/4 
f 157/34/4 155/33/4 156/33/4 158/34/4 
f 159/35/4 157/34/4 158/34/4 160/35/4 
f 161/36/4 159/35/4 160/35/4 162/36/4 
f 163/37/4 161/36/4 162/36/4 164/37/4 
f 165/38/4 163/37/4 164/37/4 166/38/4 
f 167/39/4 165/38/4 166/38/4 168/39/4 
f 169/40/4 167/39/4 168/39/4 170/40/4 
f 84/41/4 169/40/4 170/40/4 85/41/4 
f 88/1/5 86/2/5 171/2/5 172/1/5 
f 92/3/6 90/4/6 173/4/6 174/3/6 
f 100/42/7 98/7/7 175/7/7 176/42/7 
f 106/11/8 104/8/8 177/8/8 178/11/8 
f 108/10/9 106/11/9 178/11/9 179/10/9 
f 110/13/10 108/10/10 179/10/10 180/13/10 
f 112/12/11 110/13/11 180/13/11 181/12/11 
f 124/18/12 182/18/12 183/19/12 126/19/12 
f 132/44/13 184/44/13 185/45/13 134/45/13 
f 136/22/14 186/22/14 187/23/14 138/23/14 
f 140/24/15 138/23/15 187/23/15 188/24/15 
f 142/25/16 140/24/16 188/24/16 189/25/16 
f 146/27/17 190/27/17 191/28/17 148/28/17 
f 150/29/18 148/28/18 191/28/18 192/29/18 
f 152/30/19 150/29/19 192/29/19 193/30/19 
f 156/33/20 194/33/20 195/34/20 158/34/20 
f 164/37/21 162/36/21 196/36/21 197/37/21 
f 170/40/22 168/39/22 198/39/22 199/40/22 
s 8
f 81/41/1 4/2/1 3/2/1 82/41/1 
f 1/1/1 8/4/1 7/4/1 2/1/1 
f 5/3/1 9/5/1 12/5/1 6/3/1 
f 14/7/1 13/7/1 200/42/1 201/42/1 
f 200/42/1 18/9/2 17/9/2 201/42/1 
f 15/8/2 202/11/1 203/11/1 16/8/2 
f 19/10/3 26/13/3 25/13/3 20/10/3 
f 23/12/3 30/15/3 29/15/3 24/12/3 
f 32/16/3 31/16/3 204/43/3 205/43/3 
f 205/43/3 204/43/3 33/17/3 36/17/3 
f 42/21/3 41/21/3 206/44/3 207/44/3 
f 207/44/3 206/44/3 208/45/3 209/45/3 
f 209/45/3 208/45/3 43/22/3 46/22/3 
f 45/23/3 44/23/3 47/24/3 50/24/3 
f 49/25/3 48/25/3 51/26/3 54/26/3 
f 66/33/1 65/33/1 67/34/1 70/34/1 
f 73/37/1 75/38/1 78/38/1 74/37/1 
s off
f 210/2/23 171/2/23 211/41/23 212/41/23 
f 213/1/23 172/1/23 171/2/23 210/2/23 
f 214/4/23 173/4/23 172/1/23 213/1/23 
f 215/3/23 174/3/23 173/4/23 214/4/23 
f 216/5/23 217/5/23 174/3/23 215/3/23 
f 218/6/23 219/6/23 217/5/23 216/5/23 
f 220/7/23 175/7/23 219/6/23 218/6/23 
f 221/42/23 176/42/23 175/7/23 220/7/23 
f 222/9/23 223/9/23 176/42/23 221/42/23 
f 224/8/23 177/8/23 223/9/23 222/9/23 
f 225/11/23 178/11/23 177/8/23 224/8/23 
f 226/10/23 179/10/23 178/11/23 225/11/23 
f 227/13/23 180/13/23 179/10/23 226/10/23 
f 228/12/23 181/12/23 180/13/23 227/13/23 
f 229/15/23 230/15/23 181/12/23 228/12/23 
f 231/14/23 232/14/23 230/15/23 229/15/23 
f 233/16/23 234/16/23 232/14/23 231/14/23 
f 235/43/23 236/43/23 234/16/23 233/16/23 
f 237/17/23 238/17/23 236/43/23 235/43/23 
f 239/18/23 182/18/23 238/17/23 237/17/23 
f 240/19/23 183/19/23 182/18/23 239/18/23 
f 241/20/23 242/20/23 183/19/23 240/19/23 
f 243/21/23 244/21/23 242/20/23 241/20/23 
f 245/44/23 184/44/23 244/21/23 243/21/23 
f 246/45/23 185/45/23 184/44/23 245/44/23 
f 247/22/23 186/22/23 185/45/23 246/45/23 
f 248/23/23 187/23/23 186/22/23 247/22/23 
f 249/24/23 188/24/23 187/23/23 248/23/23 
f 250/25/23 189/25/23 188/24/23 249/24/23 
f 251/26/23 252/26/23 189/25/23 250/25/23 
f 253/27/23 190/27/23 252/26/23 251/26/23 
f 254/28/23 191/28/23 190/27/23 253/27/23 
f 255/29/23 192/29/23 191/28/23 254/28/23 
f 256/30/23 193/30/23 192/29/23 255/29/23 
f 257/32/23 258/32/23 193/31/23 256/31/23 
f 259/33/23 194/33/23 258/32/23 257/32/23 
f 260/34/23 195/34/23 194/33/23 259/33/23 
f 261/35/23 262/35/23 195/34/23 260/34/23 
f 263/36/23 196/36/23 262/35/23 261/35/23 
f 264/37/23 197/37/23 196/36/23 263/36/23 
f 265/38/23 266/38/23 197/37/23 264/37/23 
f 267/39/23 198/39/23 266/38/23 265/38/23 
f 268/40/23 199/40/23 198/39/23 267/39/23 
f 212/41/23 211/41/23 199/40/23 268/40/23 
f 171/2/24 86/2/24 85/41/24 211/41/24 
f 173/4/25 90/4/25 88/1/25 172/1/25 
f 217/5/26 94/5/26 92/3/26 174/3/26 
f 219/6/27 96/6/27 94/5/27 217/5/27 
f 175/7/28 98/7/28 96/6/28 219/6/28 
f 223/9/29 102/9/29 100/42/29 176/42/29 
f 177/8/30 104/8/30 102/9/30 223/9/30 
f 230/15/31 114/15/31 112/12/31 181/12/31 
f 232/14/32 116/14/32 114/15/32 230/15/32 
f 118/16/33 116/14/33 232/14/33 234/16/33 
f 236/43/34 120/43/34 118/16/34 234/16/34 
f 238/17/35 122/17/35 120/43/35 236/43/35 
f 182/18/36 124/18/36 122/17/36 238/17/36 
f 128/20/37 126/19/37 183/19/37 242/20/37 
f 244/21/38 130/21/38 128/20/38 242/20/38 
f 184/44/39 132/44/39 130/21/39 244/21/39 
f 136/22/40 134/45/40 185/45/40 186/22/40 
f 144/26/41 142/25/41 189/25/41 252/26/41 
f 190/27/42 146/27/42 144/26/42 252/26/42 
f 154/32/43 152/31/43 193/31/43 258/32/43 
f 194/33/44 156/33/44 154/32/44 258/32/44 
f 160/35/45 158/34/45 195/34/45 262/35/45 
f 196/36/46 162/36/46 160/35/46 262/35/46 
f 266/38/47 166/38/47 164/37/47 197/37/47 
f 198/39/48 168/39/48 166/38/48 266/38/48 
f 211/41/49 85/41/49 170/40/49 199/40/49 
f 84/41/4 83/2/4 4/2/4 81/41/4 
f 83/2/4 87/1/4 1/1/4 4/2/4 
f 87/1/4 89/4/4 8/4/4 1/1/4 
f 89/4/4 91/3/4 5/3/4 8/4/4 
f 91/3/4 93/5/4 9/5/4 5/3/4 
f 93/5/4 95/6/4 10/6/4 9/5/4 
f 95/6/4 97/7/4 13/7/4 10/6/4 
f 97/7/4 99/42/4 200/42/4 13/7/4 
f 99/42/4 101/9/4 18/9/4 200/42/4 
f 101/9/4 103/8/4 15/8/4 18/9/4 
f 103/8/4 105/11/4 202/11/4 15/8/4 
f 105/11/50 225/11/50 203/11/50 202/11/50 
f 225/11/23 224/8/23 16/8/23 203/11/23 
f 224/8/23 222/9/23 17/9/23 16/8/23 
f 222/9/23 221/42/23 201/42/23 17/9/23 
f 221/42/23 220/7/23 14/7/23 201/42/23 
f 220/7/23 218/6/23 11/6/23 14/7/23 
f 218/6/23 216/5/23 12/5/23 11/6/23 
f 216/5/23 215/3/23 6/3/23 12/5/23 
f 215/3/23 214/4/23 7/4/23 6/3/23 
f 214/4/23 213/1/23 2/1/23 7/4/23 
f 213/1/23 210/2/23 3/2/23 2/1/23 
f 210/2/23 212/41/23 82/41/23 3/2/23 
f 212/41/23 268/40/23 80/40/23 82/41/23 
f 268/40/23 267/39/23 77/39/23 80/40/23 
f 267/39/23 265/38/23 78/38/23 77/39/23 
f 265/38/23 264/37/23 74/37/23 78/38/23 
f 264/37/23 263/36/23 72/36/23 74/37/23 
f 263/36/23 261/35/23 69/35/23 72/36/23 
f 261/35/23 260/34/23 70/34/23 69/35/23 
f 260/34/23 259/33/23 66/33/23 70/34/23 
f 259/33/23 257/32/23 64/32/23 66/33/23 
f 257/32/23 256/31/23 61/31/23 64/32/23 
f 256/30/23 255/29/23 62/29/23 61/30/23 
f 255/29/51 149/29/51 59/29/51 62/29/51 
f 149/29/4 151/30/4 60/30/4 59/29/4 
f 151/31/4 153/32/4 63/32/4 60/31/4 
f 153/32/4 155/33/4 65/33/4 63/32/4 
f 155/33/4 157/34/4 67/34/4 65/33/4 
f 157/34/4 159/35/4 68/35/4 67/34/4 
f 159/35/4 161/36/4 71/36/4 68/35/4 
f 161/36/4 163/37/4 73/37/4 71/36/4 
f 163/37/4 165/38/4 75/38/4 73/37/4 
f 165/38/4 167/39/4 76/39/4 75/38/4 
f 167/39/4 169/40/4 79/40/4 76/39/4 
f 169/40/4 84/41/4 81/41/4 79/40/4 
f 225/11/50 105/11/50 22/11/50 21/11/50 
f 105/11/4 107/10/4 19/10/4 22/11/4 
f 107/10/4 109/13/4 26/13/4 19/10/4 
f 109/13/4 111/12/4 23/12/4 26/13/4 
f 111/12/4 113/15/4 30/15/4 23/12/4 
f 113/15/4 115/14/4 27/14/4 30/15/4 
f 115/14/4 117/16/4 31/16/4 27/14/4 
f 117/16/4 119/43/4 204/43/4 31/16/4 
f 119/43/4 121/17/4 33/17/4 204/43/4 
f 121/17/4 123/18/4 34/18/4 33/17/4 
f 123/18/4 125/19/4 37/19/4 34/18/4 
f 125/19/4 127/20/4 39/20/4 37/19/4 
f 127/20/4 129/21/4 41/21/4 39/20/4 
f 129/21/4 131/44/4 206/44/4 41/21/4 
f 131/44/4 133/45/4 208/45/4 206/44/4 
f 133/45/4 135/22/4 43/22/4 208/45/4 
f 135/22/4 137/23/4 44/23/4 43/22/4 
f 137/23/4 139/24/4 47/24/4 44/23/4 
f 139/24/4 141/25/4 48/25/4 47/24/4 
f 141/25/4 143/26/4 51/26/4 48/25/4 
f 143/26/4 145/27/4 52/27/4 51/26/4 
f 145/27/4 147/28/4 55/28/4 52/27/4 
f 147/28/4 149/29/4 57/29/4 55/28/4 
f 149/29/51 255/29/51 58/29/51 57/29/51 
f 255/29/23 254/28/23 56/28/23 58/29/23 
f 254/28/23 253/27/23 53/27/23 56/28/23 
f 253/27/23 251/26/23 54/26/23 53/27/23 
f 251/26/23 250/25/23 49/25/23 54/26/23 
f 250/25/23 249/24/23 50/24/23 49/25/23 
f 249/24/23 248/23/23 45/23/23 50/24/23 
f 248/23/23 247/22/23 46/22/23 45/23/23 
f 247/22/23 246/45/23 209/45/23 46/22/23 
f 246/45/23 245/44/23 207/44/23 209/45/23 
f 245/44/23 243/21/23 42/21/23 207/44/23 
f 243/21/23 241/20/23 40/20/23 42/21/23 
f 241/20/23 240/19/23 38/19/23 40/20/23 
f 240/19/23 239/18/23 35/18/23 38/19/23 
f 239/18/23 237/17/23 36/17/23 35/18/23 
f 237/17/23 235/43/23 205/43/23 36/17/23 
f 235/43/23 233/16/23 32/16/23 205/43/23 
f 233/16/23 231/14/23 28/14/23 32/16/23 
f 231/14/23 229/15/23 29/15/23 28/14/23 
f 229/15/23 228/12/23 24/12/23 29/15/23 
f 228/12/23 227/13/23 25/13/23 24/12/23 
f 227/13/23 226/10/23 20/10/23 25/13/23 
f 226/10/23 225/11/23 21/11/23 20/10/23 
# 268 polygons

